PathFileType	4	(X/Y/Z)	/Users/itak/Documents/Research/Walk-IL/dataset/trc/00256_00009.trc
DataRate	CameraRate	NumFrames	NumMarkers	Units	OrigDataRate	OrigDataStartFrame	OrigNumFrames
100.000000	100.000000	4	53	mm	100.000000	0	583
Frame#	Time	RPSI			LPSI			L3			STRN			T10			C7			CLAV			RBAK			LBAK			LSHO			LUPA			LAEL			LAOL			LWTS			LWPS			LFRA			LIFD			LHPS			LHTS			RSHO			RUPA			RAEL			RAOL			RWTS			RWPS			RFRA			RIFD			RHTS			RHPS			RBHD			LFHD			RFHD			LBHD			LHIP			RHIP			RASI			LASI			LKNE			LTHI			LANK			LTIP			LTOE			LMT1			LMT5			LHEE			RKNE			RTHI			RANK			RTIP			RTOE			RMT1			RMT5			RHEE			
		X1	Y1	Z1	X2	Y2	Z2	X3	Y3	Z3	X4	Y4	Z4	X5	Y5	Z5	X6	Y6	Z6	X7	Y7	Z7	X8	Y8	Z8	X9	Y9	Z9	X10	Y10	Z10	X11	Y11	Z11	X12	Y12	Z12	X13	Y13	Z13	X14	Y14	Z14	X15	Y15	Z15	X16	Y16	Z16	X17	Y17	Z17	X18	Y18	Z18	X19	Y19	Z19	X20	Y20	Z20	X21	Y21	Z21	X22	Y22	Z22	X23	Y23	Z23	X24	Y24	Z24	X25	Y25	Z25	X26	Y26	Z26	X27	Y27	Z27	X28	Y28	Z28	X29	Y29	Z29	X30	Y30	Z30	X31	Y31	Z31	X32	Y32	Z32	X33	Y33	Z33	X34	Y34	Z34	X35	Y35	Z35	X36	Y36	Z36	X37	Y37	Z37	X38	Y38	Z38	X39	Y39	Z39	X40	Y40	Z40	X41	Y41	Z41	X42	Y42	Z42	X43	Y43	Z43	X44	Y44	Z44	X45	Y45	Z45	X46	Y46	Z46	X47	Y47	Z47	X48	Y48	Z48	X49	Y49	Z49	X50	Y50	Z50	X51	Y51	Z51	X52	Y52	Z52	X53	Y53	Z53	

1	0	-1507.021728515625	1054.5380859375	-417.8197631835938	-1500.749389648438	1058.018798828125	-537.9087524414062	-1509.160400390625	1133.234130859375	-497.7378234863281	-1260.3359375	1324.09912109375	-488.7768249511719	-1513.756225585938	1258.103271484375	-493.4639282226562	-1457.955444335938	1520.986328125	-497.5527648925781	-1288.2275390625	1442.442016601562	-490.0097351074219	-1530.666748046875	1380.920288085938	-425.0472717285156	-1474.608642578125	1482.386840820312	-608.572265625	-1383.90185546875	1483.834228515625	-661.8970947265625	-1410.651489257812	1363.753295898438	-738.752685546875	-1394.742309570312	1154.121948242188	-767.5305786132812	-1469.066284179688	1138.015258789062	-723.6822509765625	-1309.39453125	918.900146484375	-704.9603271484375	-1329.81884765625	903.055419921875	-786.5067138671875	-1372.007934570312	1046.976684570312	-780.6654052734375	-1313.814819335938	727.3441162109375	-708.6755981445312	-1314.439819335938	813.40673828125	-780.4657592773438	-1257.611938476562	825.507568359375	-732.0206909179688	-1405.776245117188	1488.140625	-324.5905456542969	-1425.101684570312	1423.763671875	-257.3370056152344	-1443.373657226562	1141.99267578125	-216.6375579833984	-1474.7529296875	1135.20263671875	-306.6402893066406	-1307.695556640625	925.8174438476562	-256.3363647460938	-1362.40673828125	912.3881225585938	-192.2120819091797	-1417.237670898438	1073.456176757812	-202.9826049804688	-1290.1669921875	734.0646362304688	-262.1846618652344	-1270.091552734375	804.5200805664062	-240.8566284179688	-1324.14501953125	804.8053588867188	-191.4872283935547	-1441.405883789062	1665.677368164062	-471.4685363769531	-1230.517211914062	1742.05908203125	-513.5987548828125	-1257.681884765625	1742.165771484375	-417.2942810058594	-1364.248657226562	1678.642456054688	-587.8322143554688	-1395.541625976562	991.65771484375	-673.1846923828125	-1416.417358398438	1014.151000976562	-307.594970703125	-1314.378295898438	1054.716552734375	-339.541748046875	-1295.496948242188	1033.19482421875	-619.9656372070312	-1388.514892578125	506.3564758300781	-619.3599243164062	-1381.310424804688	649.0377197265625	-653.11181640625	-1472.233276367188	38.0515022277832	-594.1455688476562	-1439.377685546875	285.8315734863281	-619.4681396484375	-1253.28271484375	45.94414138793945	-555.3353881835938	-1317.869750976562	43.45151138305664	-507.0892639160156	-1346.160034179688	37.91971969604492	-622.0643920898438	-1530.043334960938	45.52188491821289	-538.2357177734375	-1399.088989257812	520.6654663085938	-341.0705871582031	-1364.495483398438	787.7618408203125	-296.1500854492188	-1478.232421875	41.32626724243164	-365.7127990722656	-1398.729370117188	405.0902709960938	-357.7962951660156	-1265.546142578125	46.12443161010742	-402.6087341308594	-1320.473999023438	41.20412063598633	-447.3781433105469	-1367.928466796875	42.34154510498047	-336.9474792480469	-1539.031005859375	37.72026824951172	-425.5523681640625	
2	0.01	-1506.994262695312	1054.525024414062	-417.8428649902344	-1500.70556640625	1057.994506835938	-537.92236328125	-1509.081665039062	1133.289794921875	-497.7483520507812	-1260.2236328125	1324.07470703125	-488.8141479492188	-1513.684692382812	1258.183227539062	-493.5267333984375	-1457.715942382812	1521.032958984375	-497.5985717773438	-1288.086791992188	1442.35302734375	-490.0458679199219	-1530.551147460938	1381.007446289062	-425.1564025878906	-1474.356567382812	1482.426635742188	-608.64013671875	-1383.657104492188	1483.81787109375	-661.9686279296875	-1410.464599609375	1363.774169921875	-738.8436279296875	-1395.0986328125	1154.135009765625	-767.6889038085938	-1469.274536132812	1138.18701171875	-723.6522216796875	-1310.743774414062	918.2415771484375	-705.9898071289062	-1331.512329101562	902.8159790039062	-787.552734375	-1372.890869140625	1046.96044921875	-781.1080932617188	-1317.19091796875	726.4214477539062	-710.622802734375	-1316.82861328125	813.1875	-782.1065063476562	-1259.489379882812	825.1727905273438	-733.19775390625	-1405.61083984375	1488.1552734375	-324.6653137207031	-1425.057373046875	1423.819458007812	-257.4059143066406	-1443.599365234375	1142.092895507812	-216.5989685058594	-1474.899536132812	1135.298706054688	-306.6056518554688	-1308.114013671875	925.6634521484375	-256.2162170410156	-1362.999755859375	912.4065551757812	-192.0240325927734	-1417.58837890625	1073.526123046875	-202.8998107910156	-1290.485961914062	734.2295532226562	-262.0071716308594	-1270.977294921875	804.3314208984375	-240.5391235351562	-1324.814697265625	804.7069702148438	-191.2330474853516	-1441.011596679688	1665.715087890625	-471.479736328125	-1230.092041015625	1741.947998046875	-513.62890625	-1257.219116210938	1741.99951171875	-417.3138427734375	-1363.830200195312	1678.64404296875	-587.89453125	-1395.459106445312	991.6365966796875	-673.1691284179688	-1416.517944335938	1014.144958496094	-307.6562194824219	-1314.3466796875	1054.723266601562	-339.5562744140625	-1295.386474609375	1033.182983398438	-619.9220581054688	-1388.494140625	506.3550720214844	-619.3536376953125	-1381.2919921875	649.04052734375	-653.1151733398438	-1472.240966796875	38.06909561157227	-594.138916015625	-1439.366943359375	285.8368835449219	-619.4530029296875	-1253.212280273438	45.90238952636719	-555.2977294921875	-1317.871337890625	43.45267868041992	-507.087646484375	-1346.162231445312	37.92540740966797	-622.0781860351562	-1530.0361328125	45.53030014038086	-538.2364501953125	-1399.056518554688	520.6679077148438	-341.091552734375	-1364.423583984375	787.7343139648438	-296.1884155273438	-1478.2353515625	41.36406707763672	-365.7187805175781	-1398.70361328125	405.1531677246094	-357.7729797363281	-1265.54248046875	46.12852096557617	-402.6070556640625	-1320.474853515625	41.19667434692383	-447.3813781738281	-1367.924194335938	42.34144973754883	-336.9529418945312	-1539.032104492188	37.72483825683594	-425.5597534179688	
3	0.02	-1506.9619140625	1054.509399414062	-417.8646240234375	-1500.66064453125	1057.9599609375	-537.9340209960938	-1508.99267578125	1133.360961914062	-497.7585144042969	-1260.086059570312	1324.045654296875	-488.8607177734375	-1513.59375	1258.284790039062	-493.6019287109375	-1457.412109375	1521.094604492188	-497.6607055664062	-1287.928833007812	1442.242065429688	-490.0925598144531	-1530.40087890625	1381.121459960938	-425.2857360839844	-1474.047973632812	1482.478515625	-608.7266845703125	-1383.348754882812	1483.798461914062	-662.0594482421875	-1410.251098632812	1363.80224609375	-738.960693359375	-1395.52978515625	1154.157104492188	-767.8941650390625	-1469.543579101562	1138.404418945312	-723.6338500976562	-1312.44580078125	917.4422607421875	-707.2824096679688	-1333.589965820312	902.5426025390625	-788.85986328125	-1373.971435546875	1046.949584960938	-781.664794921875	-1321.33251953125	725.4448852539062	-713.0064697265625	-1319.768310546875	812.922607421875	-784.1105346679688	-1261.748779296875	824.7979736328125	-734.71728515625	-1405.396850585938	1488.175659179688	-324.7559204101562	-1424.988891601562	1423.890991210938	-257.4909057617188	-1443.87890625	1142.219482421875	-216.5509643554688	-1475.0771484375	1135.420532226562	-306.5588684082031	-1308.623168945312	925.4772338867188	-256.0730285644531	-1363.716186523438	912.432373046875	-191.7832641601562	-1418.010986328125	1073.619873046875	-202.79248046875	-1291.7509765625	733.8710327148438	-261.4132690429688	-1272.0419921875	804.1210327148438	-240.1575012207031	-1325.659912109375	804.6119384765625	-190.8982849121094	-1440.510375976562	1665.772705078125	-471.5001525878906	-1229.537475585938	1741.777709960938	-513.6591186523438	-1256.622802734375	1741.781982421875	-417.3350219726562	-1363.30419921875	1678.639404296875	-587.9707641601562	-1395.373657226562	991.6102294921875	-673.1507568359375	-1416.634887695312	1014.1376953125	-307.7279663085938	-1314.304443359375	1054.731079101562	-339.57470703125	-1295.271484375	1033.1669921875	-619.8715209960938	-1388.470825195312	506.3544006347656	-619.3462524414062	-1381.27490234375	649.0440673828125	-653.1178588867188	-1472.247680664062	38.08489227294922	-594.1317749023438	-1439.3564453125	285.8438415527344	-619.4337768554688	-1253.1416015625	45.86149597167969	-555.2621459960938	-1317.871459960938	43.45481491088867	-507.087890625	-1346.163208007812	37.93085098266602	-622.0936279296875	-1530.02783203125	45.53733825683594	-538.23779296875	-1399.01416015625	520.6737060546875	-341.1164245605469	-1364.341918945312	787.7088012695312	-296.2256469726562	-1478.246337890625	41.41499328613281	-365.729736328125	-1398.6650390625	405.2149047851562	-357.7598876953125	-1265.5380859375	46.13210296630859	-402.6047973632812	-1320.47509765625	41.18829727172852	-447.3848876953125	-1367.921875	42.34206390380859	-336.9588623046875	-1539.032592773438	37.73514938354492	-425.5701293945312	
4	0.03	-1506.926879882812	1054.492065429688	-417.8803405761719	-1500.621948242188	1057.915649414062	-537.9401245117188	-1508.902465820312	1133.445678710938	-497.7666320800781	-1259.930297851562	1324.012817382812	-488.9150390625	-1513.487426757812	1258.404907226562	-493.6845703125	-1457.054443359375	1521.169799804688	-497.7389221191406	-1287.765380859375	1442.113891601562	-490.1488647460938	-1530.2197265625	1381.259521484375	-425.4264221191406	-1473.699584960938	1482.540771484375	-608.8284912109375	-1382.99072265625	1483.777099609375	-662.16650390625	-1410.02783203125	1363.83740234375	-739.100341796875	-1396.008544921875	1154.18994140625	-768.1401977539062	-1469.866333007812	1138.658325195312	-723.6373901367188	-1314.424194335938	916.5480346679688	-708.7799072265625	-1335.944946289062	902.2600708007812	-790.369140625	-1375.189697265625	1046.949096679688	-782.312744140625	-1326.040649414062	724.5161743164062	-715.7072143554688	-1323.106689453125	812.6300048828125	-786.3682250976562	-1264.267211914062	824.4146728515625	-736.5128173828125	-1405.140869140625	1488.201416015625	-324.8575744628906	-1424.89208984375	1423.975830078125	-257.5876159667969	-1444.19677734375	1142.367553710938	-216.494873046875	-1475.275024414062	1135.563720703125	-306.5001220703125	-1309.19580078125	925.2720336914062	-255.9090728759766	-1364.513793945312	912.4656982421875	-191.4983520507812	-1418.478881835938	1073.736083984375	-202.6633758544922	-1293.724243164062	733.1137084960938	-260.5115966796875	-1273.21337890625	803.9020385742188	-239.728515625	-1326.642822265625	804.5369873046875	-190.4948577880859	-1439.921630859375	1665.852172851562	-471.5330810546875	-1228.867065429688	1741.545532226562	-513.6869506835938	-1255.91552734375	1741.520751953125	-417.3550720214844	-1362.690673828125	1678.625854492188	-588.055908203125	-1395.296997070312	991.5795288085938	-673.1311645507812	-1416.760498046875	1014.130065917969	-307.80615234375	-1314.25634765625	1054.737060546875	-339.5947875976562	-1295.168579101562	1033.1474609375	-619.819091796875	-1388.447387695312	506.3547058105469	-619.338134765625	-1381.262084960938	649.0480346679688	-653.1185302734375	-1472.252807617188	38.09721755981445	-594.1246948242188	-1439.349487304688	285.8528137207031	-619.410888671875	-1253.08349609375	45.83016204833984	-555.2365112304688	-1317.869384765625	43.45769119262695	-507.0903930664062	-1346.162719726562	37.93532180786133	-622.1091918945312	-1530.018798828125	45.54116821289062	-538.239501953125	-1398.963256835938	520.6837768554688	-341.1436767578125	-1364.25439453125	787.6874389648438	-296.2564392089844	-1478.266235351562	41.47695922851562	-365.7460327148438	-1398.610107421875	405.2696533203125	-357.7631225585938	-1265.532836914062	46.13439178466797	-402.6019592285156	-1320.473876953125	41.18045806884766	-447.388671875	-1367.922119140625	42.34357833862305	-336.9644775390625	-1539.032348632812	37.75148773193359	-425.5838317871094	
